<svg width="195" height="171" viewBox="0 0 195 171" fill="none" xmlns="http://www.w3.org/2000/svg">
<path d="M182.748 117.618C178.937 120.477 174.312 121.924 169.706 123.096H36.0551C28.9176 120.333 22.1113 116.674 15.8684 112.179C8.68909 107.002 1.66967 99.3046 2.67848 90.3858C3.56918 82.5478 10.2841 76.9635 16.3367 72.049C22.3892 67.1348 28.8148 60.9299 28.7197 53.0426C28.6396 46.5408 24.1174 41.1126 19.9758 36.1677C15.8456 31.2154 11.6126 25.3874 12.2863 18.9237C12.7888 14.074 16.1082 9.87906 20.1623 7.29434C24.2126 4.70962 28.9594 3.50685 33.6569 2.58177C69.2642 -4.4187 116.368 2.97767 146.969 22.8179C153.452 27.0242 159.927 32.167 162.641 39.5101C166.923 51.0935 160.84 63.1833 155.694 73.2635C154 76.5791 153.547 80.8043 155.465 83.9868C157.19 86.8302 160.456 88.3187 163.65 89.1181C170.239 90.7549 177.198 90.1306 183.829 91.5659C190.464 92.9971 188.362 97.4851 189.23 104.345C189.874 109.487 186.847 114.55 182.748 117.618Z" fill="url(#paint0_linear_7772_56929)"/>
<path d="M193.243 154.63C188.766 171.951 36.4433 178.479 29.2146 157.934C26.6755 150.713 39.0356 144.718 39.1727 141.688C39.3135 138.658 -1.31477 133.865 0.0327966 128.471C3.70245 113.785 163.399 122.323 163.368 122.689C163.368 122.689 188.126 123.515 188.541 130.675C188.956 137.832 175.953 139.484 180.658 143.614C185.359 147.744 195.325 146.583 193.243 154.63Z" fill="url(#paint1_linear_7772_56929)"/>
<path d="M192.995 82.9566C192.032 85.1529 189.194 87.4037 185.211 88.1699C182.266 88.7386 179.149 88.4014 176.793 87.591C174.432 86.7806 172.736 85.5343 171.312 84.2301C160.071 73.9273 166.431 60.632 173.34 56.5222C176.514 54.6357 181.322 53.6209 184.978 54.8434C188.06 55.8751 187.999 57.5744 188.426 59.4302C189.737 65.1305 191.387 70.7898 192.861 76.4663C193.415 78.5809 193.961 80.7602 192.995 82.9566Z" fill="url(#paint2_linear_7772_56929)"/>
<path d="M55.8111 123.096H51.7019C46.4714 123.096 42.2285 118.853 42.2285 113.622V12.5053C42.2285 7.27478 46.4714 3.03192 51.7019 3.03192H55.8111C50.5805 3.03192 46.3376 7.27478 46.3376 12.5053V113.622C46.3376 118.853 50.5805 123.096 55.8111 123.096Z" fill="#A1BCE7"/>
<path d="M118.771 12.5063V113.621C118.771 118.852 114.533 123.095 109.298 123.095H55.03C49.7995 123.095 45.5564 118.852 45.5564 113.621V12.5063C45.5564 7.27575 49.7995 3.03268 55.03 3.03268H109.298C114.533 3.03268 118.771 7.27575 118.771 12.5063Z" fill="#B9D5FE"/>
<path d="M114.587 12.5063V113.621C114.587 116.538 112.214 118.91 109.298 118.91H55.03C52.1134 118.91 49.7408 116.538 49.7408 113.621V12.5063C49.7408 9.58964 52.1134 7.2171 55.03 7.2171H66.332C67.0059 9.45152 69.0813 11.0793 71.5376 11.0793H92.7903C95.2464 11.0793 97.3219 9.45152 97.9915 7.2171H109.298C112.214 7.2171 114.587 9.58964 114.587 12.5063Z" fill="white"/>
<path d="M81.7724 23.943H54.0958V48.4302H81.7724V23.943Z" fill="url(#paint3_linear_7772_56929)"/>
<path d="M80.4626 25.2529H55.4058V47.1203H80.4626V25.2529Z" fill="url(#paint4_linear_7772_56929)"/>
<path d="M80.4659 25.2529H75.6098V47.1203H80.4659V25.2529Z" fill="url(#paint5_linear_7772_56929)"/>
<path d="M57.0073 36.2594L60.2468 38.7323L61.2641 37.7771V47.1205H71.4053V37.7771L72.4226 38.7323L75.662 36.2594L73.0956 31.8143C72.9233 31.5171 72.5947 31.3291 72.2661 31.3291H68.5569C68.5569 32.5655 67.5711 33.5512 66.3347 33.5512C65.0983 33.5512 64.1125 32.5655 64.1125 31.3291H60.4033C60.0747 31.3291 59.7461 31.5171 59.5738 31.8143L57.0073 36.2594Z" fill="#4E97FD"/>
<path d="M80.4648 25.2537H79.1241V47.1211H80.4648V25.2537Z" fill="#7D879C"/>
<path opacity="0.2" d="M71.9651 25.2529L80.4626 40.1488V34.8442L74.9909 25.2529H71.9651Z" fill="white"/>
<path opacity="0.2" d="M55.4058 25.2529V27.103L66.8274 47.1203H68.3401L55.8642 25.2529H55.4058Z" fill="white"/>
<path opacity="0.2" d="M55.4058 36.6384V43.5741L57.4294 47.1204H61.385L55.4058 36.6384Z" fill="white"/>
<path opacity="0.2" d="M58.0518 25.2529L70.5277 47.1203H78.6158L66.1399 25.2529H58.0518Z" fill="white"/>
<path d="M111.138 23.943H83.4617V48.4302H111.138V23.943Z" fill="url(#paint6_linear_7772_56929)"/>
<path d="M109.828 25.2529H84.7716V47.1203H109.828V25.2529Z" fill="url(#paint7_linear_7772_56929)"/>
<path d="M88.5782 33.6204V46.6865C88.5782 46.9255 88.7735 47.1207 89.0124 47.1207H102.485C102.724 47.1207 102.919 46.9255 102.919 46.6865V33.6204C102.919 33.3816 102.724 33.1863 102.485 33.1863H89.0124C88.7735 33.1863 88.5782 33.3816 88.5782 33.6204Z" fill="#FF4129"/>
<path d="M98.2348 33.1865H97.5986V47.1203H98.2348V33.1865Z" fill="#FFCD4E"/>
<path d="M102.919 36.3135H88.5796V36.9496H102.919V36.3135Z" fill="#FFCD4E"/>
<path d="M95.2081 32.5341C95.2081 32.5341 95.2081 32.5341 95.2073 32.5341C94.2224 31.5488 93.9449 30.2827 94.5753 29.6515C94.8983 29.3282 95.3904 29.2317 95.9661 29.3806C96.4796 29.514 97.0098 29.8346 97.4579 30.2833C98.4055 31.2301 98.1901 32.9125 98.181 32.9837L98.1479 33.2237L97.9077 33.2562C97.8853 33.2593 97.6948 33.2838 97.4157 33.2838C96.8284 33.2838 95.8493 33.1757 95.2081 32.5341ZM97.0089 30.7331C96.6436 30.3686 96.2054 30.1 95.8062 29.9963C95.4666 29.9079 95.1816 29.9456 95.0259 30.1013C94.7061 30.421 94.8867 31.314 95.6571 32.0843H95.6579C96.1955 32.6217 97.1241 32.6602 97.5681 32.6441C97.5846 32.1974 97.5457 31.2703 97.0089 30.7331Z" fill="#FFCD4E"/>
<path d="M97.8091 33.2562L97.5689 33.2237L97.5358 32.9835C97.5267 32.9123 97.3121 31.2301 98.2589 30.2833C98.7071 29.8346 99.2372 29.514 99.7508 29.3807C100.951 29.0693 101.718 29.8688 101.412 31.0419C101.279 31.5553 100.958 32.0852 100.51 32.5341C100.51 32.5341 100.51 32.5341 100.509 32.5341C99.8676 33.1757 98.8885 33.2838 98.3012 33.2838C98.022 33.2838 97.8315 33.2594 97.8091 33.2562ZM99.9107 29.9963C99.5114 30.1001 99.0732 30.3687 98.7087 30.7331C98.1711 31.2705 98.1322 32.1983 98.1488 32.6447C98.5878 32.6625 99.5197 32.6244 100.059 32.0844H100.06C100.424 31.7197 100.693 31.2815 100.796 30.8818C100.885 30.5412 100.847 30.2566 100.691 30.1013C100.501 29.9118 100.169 29.9294 99.9107 29.9963Z" fill="#FFCD4E"/>
<path d="M109.832 25.2529H104.976V47.1203H109.832V25.2529Z" fill="url(#paint8_linear_7772_56929)"/>
<path d="M109.831 25.2537H108.49V47.1211H109.831V25.2537Z" fill="#7D879C"/>
<g opacity="0.2">
<path opacity="0.2" d="M101.331 25.2529L109.828 40.1488V34.8442L104.357 25.2529H101.331Z" fill="white"/>
</g>
<g opacity="0.2">
<path opacity="0.2" d="M84.7716 25.2529V27.103L96.1933 47.1203H97.7059L85.2301 25.2529H84.7716Z" fill="white"/>
</g>
<g opacity="0.2">
<path opacity="0.2" d="M84.7716 36.6384V43.5741L86.7952 47.1204H90.7508L84.7716 36.6384Z" fill="white"/>
</g>
<g opacity="0.2">
<path opacity="0.2" d="M87.4173 25.2529L99.8936 47.1203H107.982L95.5054 25.2529H87.4173Z" fill="white"/>
</g>
<path d="M81.7724 51.9525H54.0958V76.4398H81.7724V51.9525Z" fill="url(#paint9_linear_7772_56929)"/>
<path d="M80.4626 53.2625H55.4058V75.1299H80.4626V53.2625Z" fill="url(#paint10_linear_7772_56929)"/>
<path d="M66.3348 70.6932C63.3027 70.6932 60.8361 68.2266 60.8361 65.1946C60.8361 62.1627 63.3027 59.6961 66.3348 59.6961C69.3666 59.6961 71.8332 62.1627 71.8332 65.1946C71.8332 68.2266 69.3666 70.6932 66.3348 70.6932ZM66.3348 61.0611C64.0555 61.0611 62.2012 62.9154 62.2012 65.1946C62.2012 67.4739 64.0555 69.3281 66.3348 69.3281C68.6139 69.3281 70.4682 67.4739 70.4682 65.1946C70.4682 62.9154 68.6139 61.0611 66.3348 61.0611Z" fill="#2B3445"/>
<path d="M73.7458 74.1576C73.638 74.7056 73.1553 75.1158 72.5737 75.1158L60.1011 75.1299C59.4434 75.1299 58.906 74.596 58.906 73.9348C58.9042 72.0502 58.899 66.4449 58.8989 66.3965C58.8989 66.3576 58.9007 66.3204 58.9042 66.2815C58.9148 66.1578 58.9449 66.0411 58.9908 65.9315C59.1712 65.5001 59.5972 65.1978 60.094 65.1978L72.5648 65.1872C73.226 65.1854 73.7635 65.7229 73.7635 66.3841C73.7644 66.6246 73.7951 73.9217 73.7458 74.1576Z" fill="#FFCD4E"/>
<path d="M80.4659 53.2625H75.6098V75.1299H80.4659V53.2625Z" fill="url(#paint11_linear_7772_56929)"/>
<path d="M80.4648 53.2632H79.1241V75.1306H80.4648V53.2632Z" fill="#7D879C"/>
<g opacity="0.2">
<path opacity="0.2" d="M71.9651 53.2625L80.4626 68.1584V62.8537L74.9909 53.2625H71.9651Z" fill="white"/>
</g>
<g opacity="0.2">
<path opacity="0.2" d="M55.4058 53.2625V55.1126L66.8274 75.1299H68.3401L55.8642 53.2625H55.4058Z" fill="white"/>
</g>
<g opacity="0.2">
<path opacity="0.2" d="M55.4058 64.648V71.5837L57.4294 75.1299H61.385L55.4058 64.648Z" fill="white"/>
</g>
<g opacity="0.2">
<path opacity="0.2" d="M58.0518 53.2625L70.5277 75.1299H78.6158L66.1399 53.2625H58.0518Z" fill="white"/>
</g>
<path d="M111.138 51.9525H83.4617V76.4398H111.138V51.9525Z" fill="url(#paint12_linear_7772_56929)"/>
<path d="M109.828 53.2625H84.7717V75.1299H109.828V53.2625Z" fill="url(#paint13_linear_7772_56929)"/>
<path d="M102.988 64.7364L101.157 66.567L103.368 68.7783C103.619 69.0289 103.619 69.4333 103.368 69.6838L102.059 70.9936C101.808 71.2441 101.404 71.2441 101.153 70.9935L98.9419 68.7822L97.1113 70.6129C96.7772 70.9469 96.2081 70.7733 96.1158 70.3119L94.6565 62.9761C94.5752 62.5652 94.94 62.2004 95.351 62.2817L102.687 63.741C103.148 63.8332 103.322 64.4024 102.988 64.7364Z" fill="white"/>
<path d="M92.9956 60.2015L94.4284 62.2935L92.3363 60.8608C92.1202 60.7127 92.065 60.4176 92.213 60.2014C92.4001 59.9283 92.805 59.925 92.9956 60.2015ZM91.3176 62.6252L93.6044 63.7205L91.0763 63.5258C90.8151 63.5057 90.6197 63.2776 90.6399 63.0165C90.6653 62.6864 91.0143 62.481 91.3176 62.6252ZM91.0763 65.5632L93.6045 65.3685L91.3176 66.4638C91.0814 66.5769 90.7982 66.4772 90.685 66.241C90.5421 65.9427 90.7408 65.5903 91.0763 65.5632ZM98.5986 59.1828L97.5033 61.4697L97.698 58.9415C97.7181 58.6803 97.9462 58.4849 98.2073 58.5051C98.5382 58.5305 98.7423 58.88 98.5986 59.1828ZM95.6607 58.9415L95.8554 61.4696L94.7601 59.1828C94.6469 58.9466 94.7467 58.6633 94.9828 58.5501C95.2811 58.4074 95.6333 58.606 95.6607 58.9415Z" fill="#2B3445"/>
<path d="M109.832 53.2625H104.976V75.1299H109.832V53.2625Z" fill="url(#paint14_linear_7772_56929)"/>
<path d="M109.831 53.2632H108.49V75.1306H109.831V53.2632Z" fill="#7D879C"/>
<g opacity="0.2">
<path opacity="0.2" d="M101.331 53.2625L109.828 68.1584V62.8537L104.357 53.2625H101.331Z" fill="white"/>
</g>
<g opacity="0.2">
<path opacity="0.2" d="M84.7717 53.2625V55.1126L96.1933 75.1299H97.706L85.2301 53.2625H84.7717Z" fill="white"/>
</g>
<g opacity="0.2">
<path opacity="0.2" d="M84.7717 64.648V71.5837L86.7953 75.1299H90.7509L84.7717 64.648Z" fill="white"/>
</g>
<g opacity="0.2">
<path opacity="0.2" d="M87.4173 53.2625L99.8936 75.1299H107.982L95.5054 53.2625H87.4173Z" fill="white"/>
</g>
<path d="M105.075 86.2435V96.4603C105.075 97.4962 104.232 98.3396 103.196 98.3396H61.1367C60.0962 98.3396 59.2528 97.4962 59.2528 96.4603V86.2435C59.2528 85.203 60.0962 84.3596 61.1367 84.3596H103.196C104.232 84.3596 105.075 85.203 105.075 86.2435Z" fill="#94C9FE"/>
<path d="M64.7805 89.703C64.7456 89.6244 64.6955 89.5593 64.6319 89.5091C64.5621 89.4536 64.477 89.4254 64.3794 89.4254H64.3284C64.2308 89.4254 64.1458 89.4534 64.0755 89.5091C64.0115 89.5599 63.9614 89.6251 63.926 89.7048L62.6225 92.783C62.5993 92.8383 62.5881 92.8862 62.5881 92.9292C62.5881 93.0234 62.6212 93.1073 62.6839 93.1722C62.7935 93.2861 62.9878 93.3074 63.1252 93.2172C63.1825 93.18 63.2264 93.1288 63.2582 93.0603L63.5612 92.3332H65.1462L65.451 93.0637C65.4801 93.1275 65.524 93.1792 65.5822 93.2172C65.6404 93.2548 65.7053 93.2738 65.7751 93.2738C65.874 93.2738 65.96 93.2387 66.0235 93.1722C66.0866 93.1071 66.1198 93.0229 66.1198 92.9292C66.1198 92.8862 66.1086 92.8383 66.0853 92.7823L64.7805 89.703ZM64.8723 91.6799H63.8356L64.3539 90.4317L64.8723 91.6799ZM69.4478 89.7271C69.1595 89.5438 68.8059 89.451 68.3972 89.451H67.37C67.2746 89.451 67.1896 89.487 67.1233 89.555C67.0593 89.622 67.0253 89.707 67.0253 89.8008V92.9036C67.0253 92.9983 67.0598 93.0829 67.1251 93.1483C67.1905 93.2136 67.2751 93.2483 67.37 93.2483H68.3972C68.8064 93.2483 69.16 93.1554 69.4478 92.9724C69.7352 92.7897 69.9545 92.55 70.1 92.2597C70.2437 91.9717 70.3166 91.6655 70.3166 91.3497C70.3166 91.0339 70.2437 90.7278 70.1 90.4395C69.9545 90.1495 69.7352 89.9098 69.4478 89.7271ZM69.6273 91.3497C69.6273 91.5937 69.5736 91.811 69.4684 91.9959C69.3641 92.1785 69.2141 92.3235 69.0226 92.4272C68.8292 92.5317 68.6 92.5847 68.3413 92.5847H67.7196V90.1148H68.3413C68.6 90.1148 68.8292 90.1678 69.0226 90.2721C69.2141 90.3757 69.3641 90.5208 69.4684 90.7036C69.5736 90.8883 69.6273 91.1056 69.6273 91.3497ZM73.6702 89.7271C73.3819 89.5438 73.0283 89.451 72.6196 89.451H71.5923C71.497 89.451 71.4119 89.487 71.3457 89.555C71.2817 89.622 71.2477 89.707 71.2477 89.8008V92.9036C71.2477 92.9983 71.2821 93.0829 71.3475 93.1483C71.4128 93.2136 71.4974 93.2483 71.5923 93.2483H72.6196C73.0287 93.2483 73.3824 93.1554 73.6702 92.9724C73.9575 92.7897 74.1769 92.55 74.3223 92.2597C74.466 91.9717 74.539 91.6655 74.539 91.3497C74.539 91.0339 74.466 90.7278 74.3223 90.4395C74.1769 90.1495 73.9575 89.9098 73.6702 89.7271ZM73.8497 91.3497C73.8497 91.5937 73.7959 91.811 73.6908 91.9959C73.5865 92.1785 73.4365 92.3235 73.2449 92.4272C73.0516 92.5317 72.8224 92.5847 72.5637 92.5847H71.9419V90.1148H72.5637C72.8224 90.1148 73.0516 90.1678 73.2449 90.2721C73.4365 90.3757 73.5865 90.5208 73.6908 90.7036C73.7959 90.8883 73.8497 91.1056 73.8497 91.3497ZM79.6279 89.451H77.0823C76.9901 89.451 76.9082 89.4854 76.8469 89.5499C76.7856 89.6134 76.7529 89.6949 76.7529 89.7853C76.7529 89.8769 76.786 89.9581 76.8478 90.0194C76.91 90.0819 76.991 90.1148 77.0823 90.1148H78.0107V92.9292C78.0107 93.0243 78.0452 93.1089 78.1105 93.174C78.1763 93.2394 78.2609 93.2738 78.3554 93.2738C78.4489 93.2738 78.534 93.2398 78.6007 93.1756C78.6687 93.1102 78.705 93.0252 78.705 92.9292V90.1148H79.6279C79.7184 90.1148 79.8003 90.0823 79.8634 90.0214C79.9283 89.9592 79.9628 89.8775 79.9628 89.7853C79.9628 89.6942 79.9292 89.6123 79.8652 89.5488C79.8016 89.4847 79.7197 89.451 79.6279 89.451ZM83.2465 89.6506C82.9627 89.4843 82.6279 89.3999 82.251 89.3999C81.8745 89.3999 81.5384 89.4843 81.2523 89.6506C80.9654 89.8178 80.7412 90.0514 80.5854 90.3451C80.431 90.6367 80.349 90.974 80.3419 91.352C80.349 91.7257 80.431 92.0628 80.5854 92.3542C80.7412 92.6481 80.9659 92.8817 81.2523 93.0487V93.0489C81.5384 93.215 81.8745 93.2993 82.251 93.2993C82.6279 93.2993 82.9627 93.215 83.2465 93.0487C83.5312 92.8822 83.7554 92.6478 83.9139 92.352C84.0701 92.0594 84.1525 91.7231 84.1596 91.3475C84.1525 90.9767 84.0701 90.64 83.9139 90.3473C83.7554 90.0519 83.5312 89.8173 83.2465 89.6506ZM82.251 92.6357C81.9976 92.6357 81.7778 92.5796 81.5979 92.4688C81.4148 92.3562 81.2792 92.2074 81.1825 92.014C81.0854 91.8197 81.0361 91.5964 81.0361 91.3497C81.0361 91.1031 81.0854 90.8795 81.1825 90.6853C81.2779 90.4943 81.4175 90.3415 81.5979 90.2305C81.7778 90.1197 81.9976 90.0635 82.251 90.0635C82.5007 90.0635 82.7196 90.1197 82.9014 90.2307C83.0831 90.3417 83.2236 90.4948 83.319 90.6853C83.4161 90.8795 83.4654 91.1031 83.4654 91.3497C83.4654 91.5964 83.4161 91.8197 83.319 92.014C83.2236 92.2045 83.0835 92.3573 82.9018 92.4686C82.7196 92.5796 82.5007 92.6357 82.251 92.6357ZM87.8475 90.2397C88.0346 90.1295 88.2674 90.0738 88.5382 90.0738C88.7141 90.0738 88.8708 90.0931 89.0028 90.1307C89.1376 90.1694 89.2786 90.2267 89.4227 90.3019C89.5413 90.3616 89.7038 90.3372 89.7973 90.2399C89.8542 90.1797 89.8846 90.1056 89.8846 90.0257C89.8846 89.8941 89.8251 89.792 89.7141 89.7316C89.527 89.6257 89.3358 89.5432 89.1461 89.4863C88.9536 89.429 88.7334 89.3999 88.4921 89.3999C88.134 89.3999 87.8068 89.4794 87.5194 89.6363C87.2303 89.7947 87.0002 90.0246 86.8359 90.3198C86.6716 90.6136 86.5884 90.9601 86.5884 91.3497C86.5884 91.7396 86.6716 92.0861 86.8355 92.3793C87.0002 92.6747 87.2303 92.9045 87.5194 93.063C87.8068 93.2199 88.134 93.2993 88.4921 93.2993C88.7334 93.2993 88.9536 93.2703 89.1461 93.213C89.335 93.1565 89.5261 93.074 89.7123 92.9685C89.8233 92.9083 89.8846 92.8036 89.8846 92.6736C89.8846 92.5892 89.8537 92.5138 89.7951 92.4547C89.7029 92.3623 89.5449 92.3365 89.4205 92.3983C89.2786 92.4726 89.1376 92.5299 89.0028 92.5686C88.8708 92.6062 88.7141 92.6255 88.5382 92.6255C88.2674 92.6255 88.0346 92.5697 87.8471 92.4596C87.6618 92.3511 87.5203 92.2004 87.4268 92.0118C87.331 91.8193 87.2826 91.5966 87.2826 91.3497C87.2826 91.1027 87.331 90.88 87.4268 90.6873C87.5203 90.4988 87.6618 90.3482 87.8475 90.2397ZM92.6916 89.703C92.6567 89.6244 92.6066 89.5593 92.543 89.5091C92.4732 89.4536 92.3881 89.4254 92.2906 89.4254H92.2395C92.142 89.4254 92.0569 89.4534 91.9866 89.5091C91.9226 89.5599 91.8725 89.6251 91.8371 89.7048L90.5337 92.783C90.5104 92.8383 90.4992 92.8862 90.4992 92.9292C90.4992 93.0234 90.5323 93.1073 90.595 93.1722C90.7051 93.2861 90.8985 93.3074 91.0363 93.2172C91.0936 93.18 91.1375 93.1288 91.1693 93.0603L91.4723 92.3332H93.0573L93.3622 93.0637C93.3913 93.1275 93.4351 93.1792 93.4933 93.2172C93.5515 93.2548 93.6164 93.2738 93.6862 93.2738C93.7852 93.2738 93.8711 93.2387 93.9347 93.1722C93.9978 93.1071 94.0309 93.0229 94.0309 92.9292C94.0309 92.8862 94.0197 92.8383 93.9964 92.7823L92.6916 89.703ZM92.7834 91.6799H91.7467L92.2651 90.4317L92.7834 91.6799ZM97.786 91.2273C97.9126 91.0398 97.9771 90.8298 97.9771 90.6033C97.9771 90.2587 97.8459 89.9762 97.5877 89.7634C97.3361 89.5561 96.9606 89.451 96.4722 89.451H95.2811C95.1857 89.451 95.1007 89.487 95.0345 89.555C94.9705 89.622 94.9364 89.707 94.9364 89.8008V92.9292C94.9364 93.0243 94.9709 93.1089 95.0362 93.174C95.1674 93.304 95.3926 93.3047 95.5264 93.1756C95.5944 93.1102 95.6307 93.0252 95.6307 92.9292V91.8578H96.5743C96.777 91.8578 96.927 91.9043 97.0201 91.9959C97.1208 92.0952 97.1826 92.2034 97.2085 92.3269C97.2372 92.4627 97.252 92.6138 97.252 92.7758V92.9292C97.252 93.0267 97.2855 93.1122 97.3495 93.1765C97.4131 93.2403 97.5004 93.2738 97.602 93.2738C97.6964 93.2738 97.781 93.2391 97.8464 93.174C97.9117 93.1089 97.9462 93.0243 97.9462 92.9292V92.6942C97.9462 92.4502 97.8983 92.1984 97.8039 91.9458C97.734 91.7604 97.623 91.6197 97.4722 91.5245C97.5998 91.4467 97.7049 91.3473 97.786 91.2273ZM97.2828 90.6392C97.2828 90.8113 97.2148 90.9406 97.0751 91.0346C96.923 91.1371 96.7094 91.1891 96.4413 91.1891H95.6307V90.1197H96.4158C96.747 90.1197 96.9798 90.1671 97.1069 90.2609C97.2251 90.3482 97.2828 90.472 97.2828 90.6392ZM101.642 89.5488C101.579 89.4847 101.497 89.451 101.405 89.451H98.8593C98.7671 89.451 98.6852 89.4854 98.6239 89.5499C98.5626 89.6134 98.5299 89.6949 98.5299 89.7853C98.5299 89.8769 98.563 89.9581 98.6248 90.0194C98.687 90.0819 98.768 90.1148 98.8593 90.1148H99.7877V92.9292C99.7877 93.0243 99.8222 93.1089 99.8875 93.174C99.9533 93.2394 100.038 93.2738 100.132 93.2738C100.226 93.2738 100.311 93.2398 100.378 93.1756C100.446 93.1102 100.482 93.0252 100.482 92.9292V90.1148H101.405C101.495 90.1148 101.577 90.0823 101.64 90.0214C101.705 89.9592 101.74 89.8775 101.74 89.7853C101.74 89.6942 101.706 89.6123 101.642 89.5488Z" fill="white"/>
<path d="M127.125 90.1855L126.906 93.3307L125.16 115.07L144.243 117.564L146.264 92.6874L127.125 90.1855Z" fill="#FFCD4E"/>
<path d="M139.044 93.763C138.986 94.2076 139.3 94.6166 139.745 94.6747C140.189 94.7328 140.598 94.4184 140.656 93.9738C140.714 93.5292 140.4 93.1202 139.955 93.0621C139.511 93.004 139.102 93.3184 139.044 93.763ZM131.82 92.8187C131.762 93.2634 132.076 93.6723 132.521 93.7305C132.966 93.7886 133.375 93.4741 133.433 93.0295C133.491 92.585 133.176 92.176 132.732 92.1179C132.287 92.0598 131.878 92.3742 131.82 92.8187Z" fill="white"/>
<path d="M125.161 115.07L121.411 114.58L127.124 90.184L125.161 115.07Z" fill="#EAC250"/>
<path d="M132.588 93.2218C132.724 93.2395 132.848 93.1436 132.866 93.0075L133.218 90.316C133.461 88.4602 135.168 87.1479 137.023 87.3905C138.879 87.633 140.191 89.34 139.949 91.1958L139.597 93.8874C139.579 94.0235 139.675 94.1482 139.811 94.166C139.947 94.1838 140.072 94.0879 140.09 93.9518L140.442 91.2602C140.72 89.1328 139.215 87.1757 137.088 86.8976C134.96 86.6196 133.003 88.1241 132.725 90.2515L132.373 92.9431C132.356 93.0792 132.452 93.204 132.588 93.2218Z" fill="#2B3445"/>
<path d="M166.524 129.873L166.618 134.45C166.622 134.472 166.64 134.49 166.665 134.49L171.615 134.436L171.857 132.085L172.071 130.032L166.524 129.873Z" fill="#FCE9EC"/>
<path d="M160.71 139.086C160.71 139.118 160.714 139.154 160.714 139.191C160.721 139.281 160.793 139.353 160.884 139.353C162.03 139.364 168.245 139.469 171.406 139.364C172.176 139.339 172.736 138.63 172.591 137.874L171.735 134.291L166.625 134.067C166.615 134.067 166.607 134.067 166.6 134.074L162.464 136.858C161.43 137.379 160.71 138.048 160.71 139.086Z" fill="#2B3445"/>
<path d="M186.125 128.443L187.815 132.698C187.826 132.717 187.849 132.728 187.873 132.719L192.491 130.936L191.895 128.649L191.376 126.651L186.125 128.443Z" fill="#FCE9EC"/>
<path d="M183.903 139.109C183.915 139.139 183.931 139.172 183.944 139.206C183.982 139.288 184.075 139.33 184.16 139.299C185.237 138.908 191.096 136.83 194.02 135.626C194.732 135.332 195.009 134.472 194.609 133.815L192.552 130.758L187.688 132.337C187.678 132.341 187.671 132.343 187.667 132.352L184.766 136.409C183.98 137.258 183.54 138.137 183.903 139.109ZM185.529 80.4943C185.529 80.4943 186.741 99.5245 187.65 105.81C188.527 111.873 192.607 128.393 192.607 128.393C192.986 129.179 186.504 131.544 186.125 130.758C186.125 130.758 179.017 109.845 179.065 109.656C179.112 109.467 176.139 95.4055 176.139 95.4055C176.139 95.4055 173.869 106.659 173.449 110.458C172.881 115.599 172.553 131.126 172.553 131.126C172.553 132.161 165.672 132.161 165.672 131.126C165.672 131.126 163.585 114.392 163.623 108.75C163.67 101.66 167.692 80.683 167.692 80.683L185.529 80.4943Z" fill="#2B3445"/>
<path d="M152.097 64.2457L151.561 68.6275C151.561 68.6275 147.239 68.5362 146.704 66.7185C146.168 64.9048 148.017 63.3507 148.017 63.3507C148.017 63.3507 142.16 60.5779 142.801 59.3323C143.43 58.107 148.94 62.2456 149.135 62.3916C149.102 62.282 148.603 60.732 149.496 60.0463C150.421 59.3323 152.097 64.2457 152.097 64.2457Z" fill="#FCE9EC"/>
<path d="M149.683 68.5435C149.683 68.5435 156.909 73.8261 161.477 76.0779C162.837 76.7473 163.96 77.149 164.589 77.0638C166.163 76.8528 168.196 74.1101 169.758 71.5864C171.138 69.3508 172.148 67.2857 172.148 67.2857L165.802 54.1522C164.135 57.0207 163.023 62.1938 162.106 68.1134L152.541 63.3225C151.38 64.617 150.467 66.4428 149.683 68.5435Z" fill="#94C9FE"/>
<path d="M161.477 76.0779C162.837 76.7473 163.96 77.149 164.589 77.0638C166.163 76.8528 168.196 74.1101 169.758 71.5864C169.665 71.0508 169.535 70.5194 169.393 70.0041C168.785 67.8131 167.924 65.6871 166.845 63.6869C166.5 63.0498 165.892 61.4026 165.084 61.2362C164.204 61.0537 164.366 63.1391 164.297 63.7558C164.127 65.2205 163.96 66.6892 163.794 68.154C163.563 70.1907 163.319 72.2599 162.54 74.1588C162.264 74.8282 161.907 75.4815 161.477 76.0779Z" fill="#4E97FD"/>
<path d="M165.758 86.4362C165.879 87.7467 181.898 86.919 186.101 85.6897C186.754 85.499 187.124 85.3002 187.103 85.0973C187.103 85.0973 186.84 68.7951 185.46 58.741C184.957 55.0651 184.304 52.225 183.46 51.3242C181.614 49.3523 176.814 49.6648 174.209 50.1598C171.75 50.6305 166.861 51.9815 165.697 54.3469C163.77 58.2582 165.758 86.4362 165.758 86.4362Z" fill="#94C9FE"/>
<path d="M171.861 83.457C171.886 83.5026 172.935 83.6602 174.505 83.1611C176.079 82.6621 176.384 82.0624 177.97 81.612C179.707 81.1211 181.642 81.3646 183.204 82.2734C184.519 83.0402 185.553 84.2737 186.101 85.6897C186.754 85.499 187.124 85.3002 187.103 85.0973C187.103 85.0973 186.84 68.795 185.46 58.741C185.407 58.6721 185.351 58.6071 185.298 58.5381C184.567 57.6293 183.793 56.7327 182.867 56.0145C182.194 55.487 180.835 54.5214 179.91 54.7851C178.554 55.1618 177.565 59.4079 177.455 60.9969C177.182 65.1058 178.817 66.5293 178.847 68.8802C178.871 71.0387 177.325 72.9132 175.597 74.2115C173.872 75.5099 171.298 77.7891 169.752 79.2984C169.752 79.2984 171.81 83.3655 171.861 83.457Z" fill="#4E97FD"/>
<path d="M182.607 50.6545C190.953 54.1501 192.747 71.2537 191.539 74.389C190.484 77.1281 171.861 83.457 171.861 83.457L169.602 79.3925L183.283 70.81C183.283 70.81 179.899 61.1978 179.159 58.1163C178.558 55.6161 181.125 50.0338 182.607 50.6545Z" fill="#94C9FE"/>
<path d="M155.342 119.121C155.332 119.121 155.322 119.121 155.311 119.12L118.189 115.15C118.067 115.137 117.968 115.049 117.941 114.93L113.059 93.5728C113.039 93.4881 113.06 93.3992 113.114 93.3313C113.168 93.2634 113.25 93.2239 113.337 93.2239L158.307 93.212C158.388 93.212 158.466 93.2467 158.52 93.3076C158.574 93.3685 158.599 93.4496 158.59 93.5305L155.625 118.869C155.608 119.014 155.485 119.121 155.342 119.121ZM118.452 114.605L155.091 118.522L157.986 93.7828L113.695 93.7945L118.452 114.605Z" fill="#4E97FD"/>
<path d="M124.011 115.771C123.865 115.771 123.74 115.66 123.727 115.511L121.791 93.5317C121.777 93.3747 121.893 93.2362 122.05 93.2224C122.207 93.209 122.345 93.3245 122.359 93.4815L124.296 115.461C124.309 115.618 124.193 115.756 124.036 115.77C124.028 115.771 124.019 115.771 124.011 115.771ZM131.153 116.535C130.995 116.535 130.868 116.407 130.868 116.25V93.4973C130.868 93.3397 130.995 93.212 131.153 93.212C131.311 93.212 131.438 93.3397 131.438 93.4973V116.25C131.438 116.407 131.311 116.535 131.153 116.535ZM139.829 117.153C139.824 117.153 139.819 117.153 139.814 117.153C139.657 117.145 139.536 117.011 139.544 116.853L140.739 93.4827C140.748 93.3251 140.893 93.2056 141.039 93.2123C141.196 93.2204 141.318 93.3546 141.309 93.5119L140.114 116.883C140.106 117.035 139.98 117.153 139.829 117.153ZM148.503 118.39C148.495 118.39 148.488 118.39 148.48 118.389C148.323 118.377 148.206 118.239 148.218 118.082L150.182 93.4747C150.195 93.3173 150.336 93.2009 150.49 93.2129C150.647 93.2254 150.764 93.3629 150.752 93.52L148.787 118.127C148.775 118.277 148.65 118.39 148.503 118.39Z" fill="#4E97FD"/>
<path d="M157.485 100.8H114.938C114.781 100.8 114.653 100.673 114.653 100.515C114.653 100.357 114.781 100.23 114.938 100.23H157.485C157.643 100.23 157.771 100.357 157.771 100.515C157.771 100.673 157.643 100.8 157.485 100.8ZM156.342 110.57C156.339 110.57 156.336 110.57 156.333 110.57L117.298 109.301C117.14 109.295 117.017 109.164 117.022 109.006C117.027 108.852 117.153 108.73 117.307 108.73C117.31 108.73 117.313 108.73 117.316 108.73L156.351 110C156.509 110.005 156.632 110.137 156.628 110.294C156.622 110.449 156.496 110.57 156.342 110.57ZM158.416 129.834H128.698C128.541 129.834 128.413 129.706 128.413 129.548C128.413 129.391 128.541 129.263 128.698 129.263H158.416C159.496 129.263 160.375 128.384 160.375 127.304V123.745C160.375 123.144 160.091 122.565 159.616 122.196L155.177 119.069C155.048 118.979 155.018 118.801 155.108 118.672C155.199 118.543 155.377 118.512 155.506 118.603L159.955 121.738C160.579 122.221 160.946 122.968 160.946 123.745V127.304C160.946 128.699 159.811 129.834 158.416 129.834ZM157.938 96.9339C157.925 96.9339 157.913 96.933 157.9 96.9314C157.744 96.9106 157.634 96.7671 157.655 96.6109L158.461 90.5396C158.472 90.4564 158.52 90.3822 158.59 90.3369L165.353 86.0076C165.486 85.9222 165.662 85.9615 165.747 86.094C165.832 86.2268 165.793 86.4032 165.661 86.4881L159.009 90.7461L158.22 96.6861C158.201 96.8296 158.079 96.9339 157.938 96.9339Z" fill="#4E97FD"/>
<path d="M157.152 132.39L152.853 132.535L150.863 129.548H154.761L157.152 132.39Z" fill="#4E97FD"/>
<path d="M154.93 137.595C156.63 137.595 158.008 136.218 158.008 134.518C158.008 132.818 156.63 131.44 154.93 131.44C153.231 131.44 151.853 132.818 151.853 134.518C151.853 136.218 153.231 137.595 154.93 137.595Z" fill="#4E97FD"/>
<path d="M136.323 132.39L132.025 132.535L130.034 129.548H133.933L136.323 132.39Z" fill="#4E97FD"/>
<path d="M134.102 137.595C135.801 137.595 137.179 136.218 137.179 134.518C137.179 132.818 135.801 131.44 134.102 131.44C132.402 131.44 131.024 132.818 131.024 134.518C131.024 136.218 132.402 137.595 134.102 137.595Z" fill="#4E97FD"/>
<path d="M173.625 36.8456C173.625 36.8456 172.85 41.1565 168.552 40.1955C164.255 39.2376 165.352 34.3882 165.352 34.3882L170.762 34.1573L173.625 36.8456Z" fill="#2B3445"/>
<path d="M180.042 35.2872C180.042 35.2872 181.504 42.3048 176.163 47.505C171.21 52.328 171.322 40.723 170.939 40.9127L174.77 35.8261L180.042 35.2872Z" fill="#2B3445"/>
<path d="M176.987 49.8627C176.987 49.8627 174.491 53.6174 171.95 53.7588C169.409 53.9002 171.855 50.363 171.855 50.363C171.855 50.363 172.132 49.805 172.274 49.034C172.34 48.69 172.378 48.301 172.35 47.9013C172.351 47.8925 172.349 47.8852 172.346 47.8776C172.326 47.5878 172.272 47.2933 172.165 47.0043C172.918 46.6425 173.575 46.084 174.113 45.5079C175.114 44.4394 175.701 43.3242 175.701 43.3242C175.701 43.3242 175.999 47.9118 176.987 49.8627Z" fill="#FCE9EC"/>
<path d="M174.258 46.3352C173.95 47.4635 172.81 48.5629 172.274 49.034C172.34 48.69 172.378 48.301 172.35 47.9013C172.351 47.8926 172.349 47.8853 172.346 47.8776C173.077 47.4737 173.72 46.9115 174.258 46.3352Z" fill="#F4BEBE"/>
<path d="M178.362 41.0371C178.906 42.6314 176.058 43.8608 176.058 43.8608C176.058 43.8608 174.479 46.8595 172.051 48.0317C171.004 48.5377 169.801 48.7066 168.497 48.1445C165.521 46.8643 166.142 39.5163 166.497 36.6865C166.583 35.9996 166.656 35.5777 166.656 35.5777L177.299 34.9541L176.085 40.5872C176.085 40.5872 177.817 39.4427 178.362 41.0371Z" fill="#FCE9EC"/>
<path d="M171.77 41.0736C171.862 40.754 171.752 40.4409 171.522 40.3742C171.293 40.3075 171.032 40.5125 170.939 40.832C170.846 41.1516 170.956 41.4648 171.186 41.5315C171.415 41.5982 171.677 41.3932 171.77 41.0736Z" fill="#2B3445"/>
<path d="M168.422 40.5908C168.515 40.2712 168.404 39.9581 168.175 39.8913C167.945 39.8246 167.684 40.0297 167.591 40.3492C167.498 40.6688 167.609 40.982 167.838 41.0487C168.068 41.1154 168.329 40.9104 168.422 40.5908Z" fill="#2B3445"/>
<path d="M167.824 39.6012C167.899 39.5165 167.991 39.4461 168.087 39.3787C168.307 39.2448 168.609 39.304 168.752 39.5516C168.802 39.6584 168.838 39.7682 168.857 39.8802C168.768 39.8037 168.703 39.7199 168.638 39.6425C168.499 39.5191 168.376 39.4582 168.137 39.5154C168.041 39.5509 167.941 39.5832 167.824 39.6012ZM171.099 39.9835C171.174 39.8988 171.266 39.8284 171.361 39.761C171.582 39.6269 171.884 39.6868 172.027 39.9339C172.077 40.0407 172.113 40.1505 172.132 40.2626C172.042 40.186 171.978 40.1022 171.912 40.0248C171.839 39.959 171.764 39.9059 171.684 39.8892C171.603 39.868 171.509 39.8745 171.412 39.8977C171.315 39.9332 171.215 39.9655 171.099 39.9835ZM169.632 40.3963C169.615 40.8053 169.522 41.9273 169.349 42.3439C169.281 42.5016 169.17 42.6553 169.043 42.7652C168.715 43.0539 168.523 43.2604 169.042 43.9335C168.916 43.8289 168.797 43.7145 168.704 43.5705C168.463 43.1627 168.628 42.9358 168.919 42.6348C169.034 42.5271 169.115 42.41 169.174 42.2683C169.29 42.0046 169.435 41.0754 169.632 40.3963Z" fill="#2B3445"/>
<path d="M170.247 45.4043C170.246 45.4144 170.247 45.424 170.246 45.4339C170.154 46.0688 169.565 46.5092 168.93 46.4177C168.296 46.3262 167.855 45.7374 167.947 45.1024C167.948 45.0926 167.952 45.0837 167.954 45.0739C168.687 45.4213 169.451 45.5353 170.247 45.4043Z" fill="white"/>
<path d="M178.362 41.0371C177.817 39.4427 176.085 40.5871 176.085 40.5871L175.497 41.1706L174.649 38.4465C174.649 38.4465 169.153 38.779 166.095 37.7437C164.99 37.3735 164.586 35.7647 164.44 34.9586C163.893 31.9279 168.933 31.0044 168.933 31.0044C168.501 32.0765 169.484 32.618 169.484 32.618C171.299 30.2466 173.569 30.3994 173.569 30.3994C173.569 30.3994 172.812 32.2541 173.955 32.893C175.101 33.5308 177.842 31.8889 180.158 33.5712C183.363 35.8986 178.362 41.0371 178.362 41.0371Z" fill="#2B3445"/>
<path d="M171.86 83.4588L169.604 85.3373C169.604 85.3373 165.526 89.2607 163.624 86.0799C161.717 82.903 168.302 81.2922 168.302 81.2922C168.302 81.2922 167.409 81.215 166.902 80.4929C166.391 79.7748 169.754 79.3001 169.754 79.3001L171.86 83.4588Z" fill="#FCE9EC"/>
<path d="M125.564 65.3663L125.894 67.4158C125.932 67.6843 125.702 67.9223 125.433 67.8762L123.038 67.4925C121.665 68.2831 120.068 68.7358 118.372 68.7358C113.198 68.7358 109 64.545 109 59.3717C109 54.1985 113.198 50 118.372 50C123.545 50 127.736 54.1985 127.736 59.3717C127.736 61.6513 126.915 63.7467 125.564 65.3663Z" fill="url(#paint15_linear_7772_56929)"/>
<path d="M116.034 62.8025L114.424 61.1927C114.001 60.7695 114.001 60.0836 114.424 59.6604C114.847 59.2374 115.533 59.2374 115.956 59.6604L116.8 60.5042L120.78 56.5238C121.203 56.1008 121.889 56.1008 122.312 56.5238C122.735 56.947 122.735 57.6329 122.312 58.0561L117.566 62.8025C117.142 63.2256 116.457 63.2255 116.034 62.8025Z" fill="white"/>
<path d="M128.775 31.7065L128.445 33.756C128.407 34.0245 128.637 34.2625 128.906 34.2164L131.3 33.8327C132.674 34.6233 134.271 35.076 135.967 35.076C141.14 35.076 145.339 30.8852 145.339 25.7119C145.339 20.5387 141.14 16.3402 135.967 16.3402C130.794 16.3402 126.603 20.5387 126.603 25.7119C126.603 27.9915 127.424 30.0869 128.775 31.7065Z" fill="url(#paint16_linear_7772_56929)"/>
<path d="M135.736 30.3972C135.736 30.8758 135.349 31.2626 134.87 31.2626C134.392 31.2626 134.005 30.8758 134.005 30.3972C134.005 29.9207 134.392 29.5321 134.87 29.5321C135.349 29.5321 135.736 29.9207 135.736 30.3972ZM139.24 27.5509H133.9L134.062 28.2208H139.646C139.813 28.2208 139.947 28.3548 139.947 28.5213C139.947 28.686 139.813 28.8219 139.646 28.8219H133.827C133.687 28.8219 133.569 28.7262 133.536 28.5922C133.102 26.799 133.946 30.2872 131.842 21.6014H130.351C130.184 21.6014 130.05 21.4674 130.05 21.3028C130.05 21.1363 130.184 21.0023 130.351 21.0023H132.077C132.217 21.0023 132.336 21.098 132.368 21.232L132.734 22.7366H140.802C141.074 22.7366 141.262 23.0103 141.164 23.263L139.602 27.302C139.545 27.4513 139.401 27.5509 139.24 27.5509ZM139.286 30.3972C139.286 30.8758 138.898 31.2626 138.421 31.2626C137.943 31.2626 137.556 30.8758 137.556 30.3972C137.556 29.9207 137.943 29.5321 138.421 29.5321C138.898 29.5321 139.286 29.9207 139.286 30.3972Z" fill="white"/>
<path d="M137.905 24.5106V25.4964H137.004V26.3973H136.018V25.4964H135.117V24.5106H136.018V23.6093H137.004V24.5106H137.905Z" fill="url(#paint17_linear_7772_56929)"/>
<defs>
<linearGradient id="paint0_linear_7772_56929" x1="95.949" y1="-13.0445" x2="95.949" y2="70.8809" gradientUnits="userSpaceOnUse">
<stop stop-color="#F5F8FF" stop-opacity="0"/>
<stop offset="1" stop-color="#E1E9FE"/>
</linearGradient>
<linearGradient id="paint1_linear_7772_56929" x1="96.7624" y1="174.012" x2="96.7624" y2="126.512" gradientUnits="userSpaceOnUse">
<stop stop-color="#F5F8FF" stop-opacity="0"/>
<stop offset="1" stop-color="#E1E9FE"/>
</linearGradient>
<linearGradient id="paint2_linear_7772_56929" x1="179.352" y1="40.1565" x2="179.352" y2="121.39" gradientUnits="userSpaceOnUse">
<stop stop-color="#CEDCF9" stop-opacity="0"/>
<stop offset="1" stop-color="#C3D2FF"/>
</linearGradient>
<linearGradient id="paint3_linear_7772_56929" x1="67.9341" y1="29.0251" x2="67.9341" y2="61.8207" gradientUnits="userSpaceOnUse">
<stop stop-color="#F5F8FF" stop-opacity="0"/>
<stop offset="1" stop-color="#E1E9FE"/>
</linearGradient>
<linearGradient id="paint4_linear_7772_56929" x1="73.8487" y1="30.2722" x2="64.8593" y2="39.2616" gradientUnits="userSpaceOnUse">
<stop stop-color="#D1DEFF"/>
<stop offset="1" stop-color="#B2C7FF"/>
</linearGradient>
<linearGradient id="paint5_linear_7772_56929" x1="79.0088" y1="35.9197" x2="73.9761" y2="37.3034" gradientUnits="userSpaceOnUse">
<stop stop-color="#D1DEFF"/>
<stop offset="1" stop-color="#B2C7FF"/>
</linearGradient>
<linearGradient id="paint6_linear_7772_56929" x1="97.3" y1="29.0251" x2="97.3" y2="61.8207" gradientUnits="userSpaceOnUse">
<stop stop-color="#F5F8FF" stop-opacity="0"/>
<stop offset="1" stop-color="#E1E9FE"/>
</linearGradient>
<linearGradient id="paint7_linear_7772_56929" x1="103.215" y1="30.2722" x2="94.2252" y2="39.2616" gradientUnits="userSpaceOnUse">
<stop stop-color="#D1DEFF"/>
<stop offset="1" stop-color="#B2C7FF"/>
</linearGradient>
<linearGradient id="paint8_linear_7772_56929" x1="108.375" y1="35.9197" x2="103.342" y2="37.3034" gradientUnits="userSpaceOnUse">
<stop stop-color="#D1DEFF"/>
<stop offset="1" stop-color="#B2C7FF"/>
</linearGradient>
<linearGradient id="paint9_linear_7772_56929" x1="67.9341" y1="57.0346" x2="67.9341" y2="89.8303" gradientUnits="userSpaceOnUse">
<stop stop-color="#F5F8FF" stop-opacity="0"/>
<stop offset="1" stop-color="#E1E9FE"/>
</linearGradient>
<linearGradient id="paint10_linear_7772_56929" x1="73.8487" y1="58.2814" x2="64.8593" y2="67.2712" gradientUnits="userSpaceOnUse">
<stop stop-color="#D1DEFF"/>
<stop offset="1" stop-color="#B2C7FF"/>
</linearGradient>
<linearGradient id="paint11_linear_7772_56929" x1="79.0088" y1="63.9293" x2="73.9761" y2="65.313" gradientUnits="userSpaceOnUse">
<stop stop-color="#D1DEFF"/>
<stop offset="1" stop-color="#B2C7FF"/>
</linearGradient>
<linearGradient id="paint12_linear_7772_56929" x1="97.3" y1="57.0346" x2="97.3" y2="89.8303" gradientUnits="userSpaceOnUse">
<stop stop-color="#F5F8FF" stop-opacity="0"/>
<stop offset="1" stop-color="#E1E9FE"/>
</linearGradient>
<linearGradient id="paint13_linear_7772_56929" x1="103.215" y1="58.2814" x2="94.2252" y2="67.2712" gradientUnits="userSpaceOnUse">
<stop stop-color="#D1DEFF"/>
<stop offset="1" stop-color="#B2C7FF"/>
</linearGradient>
<linearGradient id="paint14_linear_7772_56929" x1="108.375" y1="63.9293" x2="103.342" y2="65.313" gradientUnits="userSpaceOnUse">
<stop stop-color="#D1DEFF"/>
<stop offset="1" stop-color="#B2C7FF"/>
</linearGradient>
<linearGradient id="paint15_linear_7772_56929" x1="109" y1="59.3678" x2="127.736" y2="59.3678" gradientUnits="userSpaceOnUse">
<stop stop-color="#909EFF"/>
<stop offset="1" stop-color="#6977E3"/>
</linearGradient>
<linearGradient id="paint16_linear_7772_56929" x1="126.603" y1="25.7083" x2="145.339" y2="25.7083" gradientUnits="userSpaceOnUse">
<stop stop-color="#909EFF"/>
<stop offset="1" stop-color="#6977E3"/>
</linearGradient>
<linearGradient id="paint17_linear_7772_56929" x1="135.117" y1="25.0033" x2="137.905" y2="25.0033" gradientUnits="userSpaceOnUse">
<stop stop-color="#909EFF"/>
<stop offset="1" stop-color="#6977E3"/>
</linearGradient>
</defs>
</svg>
