<svg xmlns="http://www.w3.org/2000/svg" xmlns:xlink="http://www.w3.org/1999/xlink" fill="currentColor" width="230" zoomAndPan="magnify" viewBox="0 0 172.5 36.000001" height="48" preserveAspectRatio="xMidYMid meet" version="1.0"><defs><g/><clipPath id="4c271b6de7"><path d="M 31.320312 8.105469 L 45.355469 8.105469 L 45.355469 31.757812 L 31.320312 31.757812 Z M 31.320312 8.105469 " clip-rule="nonzero"/></clipPath><clipPath id="6b424cdd00"><path d="M 16.089844 8 L 31 8 L 31 32 L 16.089844 32 Z M 16.089844 8 " clip-rule="nonzero"/></clipPath><clipPath id="5242e82eb2"><path d="M 20 2.871094 L 42 2.871094 L 42 12 L 20 12 Z M 20 2.871094 " clip-rule="nonzero"/></clipPath><clipPath id="5e80a61578"><path d="M 28.027344 29.699219 L 33.433594 29.699219 L 33.433594 32.144531 L 28.027344 32.144531 Z M 28.027344 29.699219 " clip-rule="nonzero"/></clipPath></defs><g clip-path="url(#4c271b6de7)"><path fill="#ffffff" d="M 45.355469 17.507812 C 45.355469 13.929688 44.070312 10.648438 41.941406 8.105469 C 42.21875 8.949219 42.269531 9.871094 42.058594 10.734375 C 41.613281 12.578125 40.109375 13.980469 38.539062 15.042969 C 36.964844 16.109375 35.230469 16.96875 33.890625 18.3125 C 32.460938 19.742188 31.558594 21.683594 31.378906 23.695312 C 31.199219 25.710938 31.75 27.78125 32.902344 29.4375 C 32.652344 27.40625 33.3125 25.277344 34.667969 23.742188 C 35.554688 22.738281 36.695312 22.003906 37.816406 21.269531 C 38.9375 20.535156 40.066406 19.777344 40.914062 18.738281 C 41.761719 17.703125 42.300781 16.332031 42.046875 15.015625 C 42.582031 16.753906 42.3125 18.722656 41.328125 20.253906 C 39.867188 22.53125 37.097656 23.65625 35.453125 25.804688 C 34.183594 27.464844 33.757812 29.695312 34.183594 31.734375 C 40.59375 30.183594 45.355469 24.402344 45.355469 17.507812 " fill-opacity="1" fill-rule="nonzero"/></g><g clip-path="url(#6b424cdd00)"><path fill="#ffffff" d="M 16.097656 17.507812 C 16.097656 13.929688 17.382812 10.648438 19.511719 8.105469 C 19.234375 8.949219 19.183594 9.871094 19.394531 10.734375 C 19.839844 12.578125 21.339844 13.980469 22.914062 15.042969 C 24.484375 16.109375 26.21875 16.96875 27.5625 18.3125 C 28.988281 19.742188 29.894531 21.683594 30.074219 23.695312 C 30.253906 25.710938 29.703125 27.78125 28.550781 29.4375 C 28.800781 27.40625 28.140625 25.277344 26.785156 23.742188 C 25.898438 22.738281 24.757812 22.003906 23.636719 21.269531 C 22.515625 20.535156 21.386719 19.777344 20.539062 18.738281 C 19.691406 17.703125 19.152344 16.332031 19.40625 15.015625 C 18.871094 16.753906 19.140625 18.722656 20.125 20.253906 C 21.585938 22.53125 24.355469 23.65625 26 25.804688 C 27.269531 27.464844 27.695312 29.695312 27.269531 31.734375 C 20.859375 30.183594 16.097656 24.402344 16.097656 17.507812 " fill-opacity="1" fill-rule="nonzero"/></g><path fill="#ffffff" d="M 33.703125 14.894531 C 33.703125 16.539062 32.371094 17.875 30.726562 17.875 C 29.082031 17.875 27.75 16.539062 27.75 14.894531 C 27.75 13.246094 29.082031 11.914062 30.726562 11.914062 C 32.371094 11.914062 33.703125 13.246094 33.703125 14.894531 " fill-opacity="1" fill-rule="nonzero"/><g clip-path="url(#5242e82eb2)"><path fill="#ffffff" d="M 20.257812 8.351562 C 20.019531 9.066406 19.984375 9.847656 20.152344 10.546875 C 20.191406 10.707031 20.242188 10.867188 20.300781 11.027344 C 22.46875 7.542969 26.324219 5.222656 30.726562 5.222656 C 35.125 5.222656 38.984375 7.542969 41.152344 11.027344 C 41.210938 10.867188 41.261719 10.707031 41.296875 10.546875 C 41.46875 9.847656 41.433594 9.066406 41.195312 8.351562 C 41.097656 8.054688 41.1875 7.726562 41.417969 7.523438 C 38.75 4.660156 34.945312 2.871094 30.726562 2.871094 C 26.507812 2.871094 22.703125 4.660156 20.035156 7.523438 C 20.261719 7.726562 20.355469 8.054688 20.257812 8.351562 " fill-opacity="1" fill-rule="nonzero"/></g><g clip-path="url(#5e80a61578)"><path fill="#ffffff" d="M 33.414062 31.894531 C 33.296875 31.316406 33.238281 30.730469 33.238281 30.148438 C 33.222656 30.15625 33.203125 30.164062 33.183594 30.171875 C 33.089844 30.207031 32.996094 30.222656 32.902344 30.222656 C 32.652344 30.222656 32.410156 30.101562 32.261719 29.886719 C 32.21875 29.828125 32.179688 29.769531 32.140625 29.710938 C 31.675781 29.761719 31.203125 29.792969 30.726562 29.792969 C 30.246094 29.792969 29.777344 29.761719 29.3125 29.710938 C 29.273438 29.769531 29.234375 29.828125 29.191406 29.886719 C 29.042969 30.101562 28.800781 30.222656 28.550781 30.222656 C 28.457031 30.222656 28.359375 30.207031 28.269531 30.171875 C 28.25 30.164062 28.230469 30.15625 28.210938 30.148438 C 28.214844 30.730469 28.15625 31.316406 28.039062 31.894531 C 28.035156 31.894531 28.035156 31.894531 28.035156 31.894531 C 28.910156 32.058594 29.808594 32.144531 30.726562 32.144531 C 31.644531 32.144531 32.542969 32.058594 33.417969 31.894531 C 33.414062 31.894531 33.414062 31.894531 33.414062 31.894531 " fill-opacity="1" fill-rule="nonzero"/></g><g fill="#ffffff" fill-opacity="1"><g transform="translate(51.068283, 18.164989)"><g><path d="M 6.171875 -8.84375 C 5.453125 -8.84375 4.890625 -8.546875 4.484375 -7.953125 C 4.085938 -7.367188 3.890625 -6.5625 3.890625 -5.53125 C 3.890625 -3.382812 4.707031 -2.3125 6.34375 -2.3125 C 6.832031 -2.3125 7.304688 -2.378906 7.765625 -2.515625 C 8.234375 -2.648438 8.703125 -2.816406 9.171875 -3.015625 L 9.171875 -0.46875 C 8.242188 -0.0507812 7.191406 0.15625 6.015625 0.15625 C 4.328125 0.15625 3.035156 -0.332031 2.140625 -1.3125 C 1.242188 -2.289062 0.796875 -3.703125 0.796875 -5.546875 C 0.796875 -6.703125 1.007812 -7.71875 1.4375 -8.59375 C 1.875 -9.46875 2.5 -10.140625 3.3125 -10.609375 C 4.132812 -11.078125 5.097656 -11.3125 6.203125 -11.3125 C 7.410156 -11.3125 8.5625 -11.050781 9.65625 -10.53125 L 8.734375 -8.15625 C 8.328125 -8.351562 7.914062 -8.515625 7.5 -8.640625 C 7.082031 -8.773438 6.640625 -8.84375 6.171875 -8.84375 Z M 6.171875 -8.84375 "/></g></g></g><g fill="#ffffff" fill-opacity="1"><g transform="translate(61.204664, 18.164989)"><g><path d="M 11.640625 -5.59375 C 11.640625 -3.71875 11.175781 -2.289062 10.25 -1.3125 C 9.332031 -0.332031 7.988281 0.15625 6.21875 0.15625 C 4.46875 0.15625 3.125 -0.332031 2.1875 -1.3125 C 1.257812 -2.300781 0.796875 -3.734375 0.796875 -5.609375 C 0.796875 -7.460938 1.257812 -8.878906 2.1875 -9.859375 C 3.113281 -10.835938 4.460938 -11.328125 6.234375 -11.328125 C 8.003906 -11.328125 9.347656 -10.84375 10.265625 -9.875 C 11.179688 -8.90625 11.640625 -7.476562 11.640625 -5.59375 Z M 3.96875 -5.59375 C 3.96875 -3.4375 4.71875 -2.359375 6.21875 -2.359375 C 6.976562 -2.359375 7.539062 -2.617188 7.90625 -3.140625 C 8.28125 -3.660156 8.46875 -4.476562 8.46875 -5.59375 C 8.46875 -6.707031 8.28125 -7.53125 7.90625 -8.0625 C 7.53125 -8.59375 6.972656 -8.859375 6.234375 -8.859375 C 4.722656 -8.859375 3.96875 -7.769531 3.96875 -5.59375 Z M 3.96875 -5.59375 "/></g></g></g><g fill="#ffffff" fill-opacity="1"><g transform="translate(73.652046, 18.164989)"><g><path d="M 11.828125 0 L 7.875 0 L 3.796875 -7.859375 L 3.734375 -7.859375 C 3.828125 -6.617188 3.875 -5.675781 3.875 -5.03125 L 3.875 0 L 1.203125 0 L 1.203125 -11.15625 L 5.140625 -11.15625 L 9.203125 -3.40625 L 9.25 -3.40625 C 9.175781 -4.53125 9.140625 -5.429688 9.140625 -6.109375 L 9.140625 -11.15625 L 11.828125 -11.15625 Z M 11.828125 0 "/></g></g></g><g fill="#ffffff" fill-opacity="1"><g transform="translate(86.679087, 18.164989)"><g><path d="M 7.46875 -11.15625 L 10.84375 -11.15625 L 7.1875 0 L 3.640625 0 L 0 -11.15625 L 3.390625 -11.15625 L 4.90625 -5.5 C 5.21875 -4.238281 5.390625 -3.363281 5.421875 -2.875 C 5.460938 -3.226562 5.535156 -3.671875 5.640625 -4.203125 C 5.742188 -4.742188 5.835938 -5.164062 5.921875 -5.46875 Z M 7.46875 -11.15625 "/></g></g></g><g fill="#ffffff" fill-opacity="1"><g transform="translate(97.517158, 18.164989)"><g><path d="M 7.828125 0 L 1.203125 0 L 1.203125 -11.15625 L 7.828125 -11.15625 L 7.828125 -8.734375 L 4.21875 -8.734375 L 4.21875 -6.984375 L 7.5625 -6.984375 L 7.5625 -4.5625 L 4.21875 -4.5625 L 4.21875 -2.453125 L 7.828125 -2.453125 Z M 7.828125 0 "/></g></g></g><g fill="#ffffff" fill-opacity="1"><g transform="translate(106.089988, 18.164989)"><g><path d="M 11.828125 0 L 7.875 0 L 3.796875 -7.859375 L 3.734375 -7.859375 C 3.828125 -6.617188 3.875 -5.675781 3.875 -5.03125 L 3.875 0 L 1.203125 0 L 1.203125 -11.15625 L 5.140625 -11.15625 L 9.203125 -3.40625 L 9.25 -3.40625 C 9.175781 -4.53125 9.140625 -5.429688 9.140625 -6.109375 L 9.140625 -11.15625 L 11.828125 -11.15625 Z M 11.828125 0 "/></g></g></g><g fill="#ffffff" fill-opacity="1"><g transform="translate(119.117028, 18.164989)"><g><path d="M 1.203125 0 L 1.203125 -11.15625 L 4.234375 -11.15625 L 4.234375 0 Z M 1.203125 0 "/></g></g></g><g fill="#ffffff" fill-opacity="1"><g transform="translate(124.555131, 18.164989)"><g><path d="M 7.828125 0 L 1.203125 0 L 1.203125 -11.15625 L 7.828125 -11.15625 L 7.828125 -8.734375 L 4.21875 -8.734375 L 4.21875 -6.984375 L 7.5625 -6.984375 L 7.5625 -4.5625 L 4.21875 -4.5625 L 4.21875 -2.453125 L 7.828125 -2.453125 Z M 7.828125 0 "/></g></g></g><g fill="#ffffff" fill-opacity="1"><g transform="translate(133.127966, 18.164989)"><g><path d="M 11.828125 0 L 7.875 0 L 3.796875 -7.859375 L 3.734375 -7.859375 C 3.828125 -6.617188 3.875 -5.675781 3.875 -5.03125 L 3.875 0 L 1.203125 0 L 1.203125 -11.15625 L 5.140625 -11.15625 L 9.203125 -3.40625 L 9.25 -3.40625 C 9.175781 -4.53125 9.140625 -5.429688 9.140625 -6.109375 L 9.140625 -11.15625 L 11.828125 -11.15625 Z M 11.828125 0 "/></g></g></g><g fill="#ffffff" fill-opacity="1"><g transform="translate(146.155006, 18.164989)"><g><path d="M 6.125 0 L 3.109375 0 L 3.109375 -8.6875 L 0.390625 -8.6875 L 0.390625 -11.15625 L 8.84375 -11.15625 L 8.84375 -8.6875 L 6.125 -8.6875 Z M 6.125 0 "/></g></g></g><g fill="#ffffff" fill-opacity="1"><g transform="translate(71.378751, 30.057003)"><g><path d="M 3.5625 -5.40625 C 3.039062 -5.40625 2.640625 -5.210938 2.359375 -4.828125 C 2.078125 -4.441406 1.9375 -3.90625 1.9375 -3.21875 C 1.9375 -1.769531 2.476562 -1.046875 3.5625 -1.046875 C 4.007812 -1.046875 4.554688 -1.160156 5.203125 -1.390625 L 5.203125 -0.25 C 4.671875 -0.0195312 4.078125 0.09375 3.421875 0.09375 C 2.484375 0.09375 1.765625 -0.191406 1.265625 -0.765625 C 0.773438 -1.335938 0.53125 -2.15625 0.53125 -3.21875 C 0.53125 -3.894531 0.648438 -4.484375 0.890625 -4.984375 C 1.140625 -5.492188 1.488281 -5.878906 1.9375 -6.140625 C 2.394531 -6.410156 2.9375 -6.546875 3.5625 -6.546875 C 4.1875 -6.546875 4.816406 -6.394531 5.453125 -6.09375 L 5 -4.984375 C 4.757812 -5.097656 4.515625 -5.195312 4.265625 -5.28125 C 4.023438 -5.363281 3.789062 -5.40625 3.5625 -5.40625 Z M 3.5625 -5.40625 "/></g></g></g><g fill="#ffffff" fill-opacity="1"><g transform="translate(79.527012, 30.057003)"><g><path d="M 4.765625 0 L 4.296875 -1.53125 L 1.9375 -1.53125 L 1.46875 0 L 0 0 L 2.28125 -6.484375 L 3.953125 -6.484375 L 6.234375 0 Z M 3.96875 -2.6875 C 3.539062 -4.082031 3.296875 -4.867188 3.234375 -5.046875 C 3.179688 -5.234375 3.144531 -5.378906 3.125 -5.484375 C 3.03125 -5.109375 2.75 -4.175781 2.28125 -2.6875 Z M 3.96875 -2.6875 "/></g></g></g><g fill="#ffffff" fill-opacity="1"><g transform="translate(88.151991, 30.057003)"><g><path d="M 6.546875 0 L 4.796875 0 L 2 -4.890625 L 1.953125 -4.890625 C 2.003906 -4.023438 2.03125 -3.410156 2.03125 -3.046875 L 2.03125 0 L 0.8125 0 L 0.8125 -6.453125 L 2.546875 -6.453125 L 5.34375 -1.625 L 5.375 -1.625 C 5.332031 -2.457031 5.3125 -3.050781 5.3125 -3.40625 L 5.3125 -6.453125 L 6.546875 -6.453125 Z M 6.546875 0 "/></g></g></g><g fill="#ffffff" fill-opacity="1"><g transform="translate(97.889312, 30.057003)"><g><path d="M 6.546875 0 L 4.796875 0 L 2 -4.890625 L 1.953125 -4.890625 C 2.003906 -4.023438 2.03125 -3.410156 2.03125 -3.046875 L 2.03125 0 L 0.8125 0 L 0.8125 -6.453125 L 2.546875 -6.453125 L 5.34375 -1.625 L 5.375 -1.625 C 5.332031 -2.457031 5.3125 -3.050781 5.3125 -3.40625 L 5.3125 -6.453125 L 6.546875 -6.453125 Z M 6.546875 0 "/></g></g></g><g fill="#ffffff" fill-opacity="1"><g transform="translate(107.626634, 30.057003)"><g><path d="M 4.765625 0 L 4.296875 -1.53125 L 1.9375 -1.53125 L 1.46875 0 L 0 0 L 2.28125 -6.484375 L 3.953125 -6.484375 L 6.234375 0 Z M 3.96875 -2.6875 C 3.539062 -4.082031 3.296875 -4.867188 3.234375 -5.046875 C 3.179688 -5.234375 3.144531 -5.378906 3.125 -5.484375 C 3.03125 -5.109375 2.75 -4.175781 2.28125 -2.6875 Z M 3.96875 -2.6875 "/></g></g></g><g fill="#ffffff" fill-opacity="1"><g transform="translate(116.251613, 30.057003)"><g><path d="M 0.8125 -6.453125 L 2.828125 -6.453125 C 3.742188 -6.453125 4.40625 -6.320312 4.8125 -6.0625 C 5.226562 -5.800781 5.4375 -5.390625 5.4375 -4.828125 C 5.4375 -4.441406 5.34375 -4.125 5.15625 -3.875 C 4.976562 -3.625 4.738281 -3.472656 4.4375 -3.421875 L 4.4375 -3.390625 C 4.851562 -3.296875 5.148438 -3.125 5.328125 -2.875 C 5.503906 -2.625 5.59375 -2.289062 5.59375 -1.875 C 5.59375 -1.28125 5.378906 -0.816406 4.953125 -0.484375 C 4.535156 -0.160156 3.960938 0 3.234375 0 L 0.8125 0 Z M 2.1875 -3.90625 L 2.984375 -3.90625 C 3.347656 -3.90625 3.613281 -3.960938 3.78125 -4.078125 C 3.945312 -4.191406 4.03125 -4.378906 4.03125 -4.640625 C 4.03125 -4.890625 3.9375 -5.066406 3.75 -5.171875 C 3.570312 -5.285156 3.289062 -5.34375 2.90625 -5.34375 L 2.1875 -5.34375 Z M 2.1875 -2.8125 L 2.1875 -1.125 L 3.078125 -1.125 C 3.453125 -1.125 3.726562 -1.195312 3.90625 -1.34375 C 4.082031 -1.488281 4.171875 -1.710938 4.171875 -2.015625 C 4.171875 -2.546875 3.789062 -2.8125 3.03125 -2.8125 Z M 2.1875 -2.8125 "/></g></g></g><g fill="#ffffff" fill-opacity="1"><g transform="translate(124.713272, 30.057003)"><g><path d="M 0.8125 0 L 0.8125 -6.453125 L 2.1875 -6.453125 L 2.1875 0 Z M 0.8125 0 "/></g></g></g><g fill="#ffffff" fill-opacity="1"><g transform="translate(130.093919, 30.057003)"><g><path d="M 4.625 -1.796875 C 4.625 -1.210938 4.410156 -0.75 3.984375 -0.40625 C 3.566406 -0.0703125 2.988281 0.09375 2.25 0.09375 C 1.550781 0.09375 0.941406 -0.0351562 0.421875 -0.296875 L 0.421875 -1.578125 C 0.847656 -1.378906 1.210938 -1.238281 1.515625 -1.15625 C 1.816406 -1.082031 2.09375 -1.046875 2.34375 -1.046875 C 2.644531 -1.046875 2.875 -1.101562 3.03125 -1.21875 C 3.195312 -1.332031 3.28125 -1.503906 3.28125 -1.734375 C 3.28125 -1.859375 3.242188 -1.96875 3.171875 -2.0625 C 3.097656 -2.164062 2.992188 -2.257812 2.859375 -2.34375 C 2.722656 -2.4375 2.445312 -2.582031 2.03125 -2.78125 C 1.632812 -2.96875 1.335938 -3.144531 1.140625 -3.3125 C 0.941406 -3.488281 0.78125 -3.691406 0.65625 -3.921875 C 0.539062 -4.148438 0.484375 -4.414062 0.484375 -4.71875 C 0.484375 -5.289062 0.675781 -5.738281 1.0625 -6.0625 C 1.457031 -6.382812 1.992188 -6.546875 2.671875 -6.546875 C 3.015625 -6.546875 3.335938 -6.503906 3.640625 -6.421875 C 3.941406 -6.347656 4.257812 -6.238281 4.59375 -6.09375 L 4.15625 -5.03125 C 3.8125 -5.175781 3.523438 -5.273438 3.296875 -5.328125 C 3.066406 -5.378906 2.84375 -5.40625 2.625 -5.40625 C 2.375 -5.40625 2.175781 -5.34375 2.03125 -5.21875 C 1.894531 -5.101562 1.828125 -4.945312 1.828125 -4.75 C 1.828125 -4.632812 1.851562 -4.53125 1.90625 -4.4375 C 1.96875 -4.351562 2.054688 -4.269531 2.171875 -4.1875 C 2.296875 -4.101562 2.585938 -3.953125 3.046875 -3.734375 C 3.648438 -3.441406 4.0625 -3.148438 4.28125 -2.859375 C 4.507812 -2.566406 4.625 -2.210938 4.625 -1.796875 Z M 4.625 -1.796875 "/></g></g></g><path stroke-linecap="round" transform="matrix(0.731131, 0, 0, 0.731845, 52.490517, 25.330761)" fill="none" stroke-linejoin="miter" d="M 2.000474 1.997975 L 14.027007 1.997975 " stroke="#ffffff" stroke-width="4" stroke-opacity="1" stroke-miterlimit="4"/><path stroke-linecap="round" transform="matrix(0.731131, 0, 0, 0.731845, 143.608824, 25.330761)" fill="none" stroke-linejoin="miter" d="M 1.998942 1.997975 L 14.025475 1.997975 " stroke="#ffffff" stroke-width="4" stroke-opacity="1" stroke-miterlimit="4"/></svg>