<svg xmlns="http://www.w3.org/2000/svg" xmlns:xlink="http://www.w3.org/1999/xlink" width="500" zoomAndPan="magnify" viewBox="0 0 375 374.999991" height="500" preserveAspectRatio="xMidYMid meet" version="1.0"><defs><clipPath id="7364281776"><path d="M 195 69.535156 L 371.097656 69.535156 L 371.097656 366.328125 L 195 366.328125 Z M 195 69.535156 " clip-rule="nonzero"/></clipPath><clipPath id="47f83855c0"><path d="M 3.597656 69 L 180 69 L 180 367 L 3.597656 367 Z M 3.597656 69 " clip-rule="nonzero"/></clipPath><clipPath id="75089a82a7"><path d="M 53 3.828125 L 322 3.828125 L 322 107 L 53 107 Z M 53 3.828125 " clip-rule="nonzero"/></clipPath><clipPath id="f2cd1d2b65"><path d="M 153.605469 340.488281 L 221.53125 340.488281 L 221.53125 371.171875 L 153.605469 371.171875 Z M 153.605469 340.488281 " clip-rule="nonzero"/></clipPath></defs><g clip-path="url(#7364281776)"><path fill="#ffffff" d="M 371.273438 187.5 C 371.273438 142.585938 355.144531 101.449219 328.375 69.535156 C 331.886719 80.113281 332.519531 91.65625 329.886719 102.492188 C 324.253906 125.660156 305.40625 143.230469 285.652344 156.585938 C 265.898438 169.941406 244.109375 180.765625 227.25 197.625 C 209.3125 215.554688 197.9375 239.910156 195.695312 265.171875 C 193.449219 290.433594 200.355469 316.414062 214.847656 337.222656 C 211.699219 311.714844 219.980469 285.007812 237.003906 265.75 C 248.144531 253.15625 262.496094 243.917969 276.570312 234.714844 C 290.640625 225.507812 304.847656 215.96875 315.5 202.957031 C 326.152344 189.945312 332.917969 172.746094 329.703125 156.238281 C 336.425781 178.050781 333.046875 202.757812 320.710938 221.964844 C 302.347656 250.554688 267.546875 264.636719 246.886719 291.617188 C 230.941406 312.441406 225.578125 340.429688 230.917969 366.019531 C 311.453125 346.546875 371.273438 274.015625 371.273438 187.5 " fill-opacity="1" fill-rule="nonzero"/></g><g clip-path="url(#47f83855c0)"><path fill="#ffffff" d="M 3.734375 187.5 C 3.734375 142.585938 19.863281 101.449219 46.632812 69.535156 C 43.121094 80.113281 42.488281 91.65625 45.121094 102.492188 C 50.75 125.660156 69.601562 143.230469 89.355469 156.585938 C 109.105469 169.941406 130.898438 180.765625 147.757812 197.625 C 165.691406 215.554688 177.070312 239.910156 179.3125 265.171875 C 181.554688 290.433594 174.652344 316.414062 160.15625 337.222656 C 163.308594 311.714844 155.027344 285.007812 138 265.75 C 126.863281 253.15625 112.511719 243.917969 98.4375 234.714844 C 84.367188 225.507812 70.160156 215.96875 59.507812 202.957031 C 48.855469 189.945312 42.085938 172.746094 45.304688 156.238281 C 38.578125 178.050781 41.960938 202.757812 54.296875 221.964844 C 72.660156 250.554688 107.460938 264.636719 128.121094 291.617188 C 144.066406 312.441406 149.425781 340.429688 144.085938 366.019531 C 63.554688 346.546875 3.734375 274.015625 3.734375 187.5 " fill-opacity="1" fill-rule="nonzero"/></g><path fill="#ffffff" d="M 224.894531 154.699219 C 224.894531 175.351562 208.152344 192.089844 187.503906 192.089844 C 166.851562 192.089844 150.113281 175.351562 150.113281 154.699219 C 150.113281 134.050781 166.851562 117.3125 187.503906 117.3125 C 208.152344 117.3125 224.894531 134.050781 224.894531 154.699219 " fill-opacity="1" fill-rule="nonzero"/><g clip-path="url(#75089a82a7)"><path fill="#ffffff" d="M 55.96875 72.636719 C 53 81.585938 52.542969 91.363281 54.683594 100.167969 C 55.171875 102.183594 55.792969 104.183594 56.539062 106.167969 C 83.746094 62.449219 132.222656 33.347656 187.503906 33.347656 C 242.785156 33.347656 291.261719 62.449219 318.46875 106.167969 C 319.210938 104.183594 319.835938 102.183594 320.324219 100.167969 C 322.464844 91.363281 322.007812 81.585938 319.035156 72.636719 C 317.785156 68.863281 318.945312 64.792969 321.804688 62.222656 C 288.28125 26.296875 240.519531 3.824219 187.503906 3.824219 C 134.488281 3.824219 86.726562 26.296875 53.199219 62.222656 C 56.058594 64.792969 57.222656 68.863281 55.96875 72.636719 " fill-opacity="1" fill-rule="nonzero"/></g><g clip-path="url(#f2cd1d2b65)"><path fill="#ffffff" d="M 221.289062 368.027344 C 219.773438 360.773438 219.050781 353.417969 219.082031 346.105469 C 218.847656 346.21875 218.609375 346.320312 218.367188 346.414062 C 217.214844 346.855469 216.027344 347.066406 214.851562 347.066406 C 211.703125 347.066406 208.65625 345.550781 206.773438 342.847656 C 206.261719 342.113281 205.761719 341.371094 205.269531 340.628906 C 199.4375 341.296875 193.511719 341.652344 187.503906 341.652344 C 181.496094 341.652344 175.566406 341.296875 169.738281 340.628906 C 169.246094 341.371094 168.746094 342.113281 168.234375 342.847656 C 166.351562 345.550781 163.304688 347.066406 160.15625 347.066406 C 158.980469 347.066406 157.789062 346.855469 156.640625 346.414062 C 156.398438 346.320312 156.15625 346.21875 155.925781 346.105469 C 155.957031 353.417969 155.230469 360.773438 153.71875 368.027344 C 153.714844 368.039062 153.714844 368.046875 153.710938 368.058594 C 164.664062 370.09375 175.957031 371.171875 187.503906 371.171875 C 199.050781 371.171875 210.339844 370.09375 221.292969 368.058594 C 221.292969 368.046875 221.289062 368.039062 221.289062 368.027344 " fill-opacity="1" fill-rule="nonzero"/></g></svg>